<?xml version="1.0" encoding="UTF-8" standalone="no"?>
<!-- Created with Inkscape (http://www.inkscape.org/) -->

<svg
   width="93.269699mm"
   height="35.844837mm"
   viewBox="0 0 93.269699 35.844837"
   version="1.1"
   id="svg5"
   sodipodi:docname="Xy.svg"
   inkscape:version="1.1 (c68e22c387, 2021-05-23)"
   xmlns:inkscape="http://www.inkscape.org/namespaces/inkscape"
   xmlns:sodipodi="http://sodipodi.sourceforge.net/DTD/sodipodi-0.dtd"
   xmlns="http://www.w3.org/2000/svg"
   xmlns:svg="http://www.w3.org/2000/svg"
   xmlns:ns1="http://www.iki.fi/pav/software/textext/">
  <sodipodi:namedview
     id="namedview7"
     pagecolor="#ffffff"
     bordercolor="#999999"
     borderopacity="1"
     inkscape:pageshadow="0"
     inkscape:pageopacity="0"
     inkscape:pagecheckerboard="0"
     inkscape:document-units="mm"
     showgrid="false"
     inkscape:zoom="1.4467452"
     inkscape:cx="115.08592"
     inkscape:cy="17.625771"
     inkscape:window-width="1920"
     inkscape:window-height="1001"
     inkscape:window-x="2391"
     inkscape:window-y="-9"
     inkscape:window-maximized="1"
     inkscape:current-layer="layer1"
     showguides="true"
     inkscape:guide-bbox="true"
     fit-margin-top="0"
     fit-margin-left="0"
     fit-margin-right="0"
     fit-margin-bottom="0">
    <sodipodi:guide
       position="-1.289794e-06,35.844838"
       orientation="0,-1"
       id="guide4386" />
  </sodipodi:namedview>
  <defs
     id="defs2" />
  <g
     inkscape:label="Calque 1"
     inkscape:groupmode="layer"
     id="layer1"
     transform="translate(-31.82143,-79.370682)">
    <rect
       style="fill:#ffffff;fill-opacity:1;stroke-width:0.264583"
       id="rect4675"
       width="93.269699"
       height="35.84483"
       x="31.82143"
       y="79.370689" />
    <g
       transform="matrix(1.1106551,0,0,1.1106551,96.646497,147.47581)"
       ns1:version="1.5.0"
       ns1:texconverter="pdflatex"
       ns1:pdfconverter="inkscape"
       ns1:text="$\\boldsymbol{X}$"
       ns1:preamble="C:\Users\leblanco.OASIS\AppData\Roaming\inkscape\extensions\textext\default_packages.tex"
       ns1:scale="1.0"
       ns1:alignment="middle center"
       ns1:stroke-to-path="0"
       ns1:jacobian_sqrt="0.352778"
       id="g841">
      <defs
         id="id-7acdee65-1bb8-46ea-9966-843dfcca3b8f">
        <g
           id="id-0dbd9be4-4446-4b81-88b1-6658330c568b">
          <symbol
             overflow="visible"
             id="id-d4fd5533-1e4f-4540-9481-b2352fe9fa3f">
            <path
               style="stroke:none;stroke-width:0"
               d=""
               id="id-d2a2ad89-5287-4cdf-ba32-360f59380411" />
          </symbol>
          <symbol
             overflow="visible"
             id="id-78d18e41-ce3d-4b01-b84c-097c528b7c0a">
            <path
               style="stroke:none;stroke-width:0"
               d="M 5.796875,-3.9375 7.125,-5.234375 l 0.609375,-0.625 c 0.40625,-0.375 0.515625,-0.5 1.5625,-0.515625 0.1875,0 0.203125,-0.25 0.203125,-0.28125 0,-0.0625 -0.046875,-0.1875 -0.203125,-0.1875 -0.34375,0 -0.71875,0.03125 -1.078125,0.03125 -0.296875,0 -1.015625,-0.03125 -1.296875,-0.03125 -0.078125,0 -0.28125,0 -0.28125,0.28125 0,0.1875 0.15625,0.1875 0.25,0.1875 0.296875,0.015625 0.5625,0.09375 0.59375,0.109375 l -1.90625,1.875 L 4.671875,-6.3125 C 4.765625,-6.328125 5.078125,-6.375 5.25,-6.375 c 0.109375,0 0.28125,0 0.28125,-0.28125 0,-0.125 -0.09375,-0.1875 -0.21875,-0.1875 -0.34375,0 -1.171875,0.03125 -1.515625,0.03125 -0.234375,0 -0.453125,0 -0.6875,0 -0.234375,0 -0.46875,-0.03125 -0.703125,-0.03125 -0.078125,0 -0.265625,0 -0.265625,0.28125 0,0.1875 0.125,0.1875 0.40625,0.1875 0.140625,0 0.25,0 0.390625,0.015625 0.140625,0.015625 0.140625,0.03125 0.203125,0.15625 l 1.375,2.875 -2.5,2.46875 c -0.1875,0.171875 -0.390625,0.375 -1.28125,0.390625 -0.171875,0 -0.34375,0 -0.34375,0.296875 C 0.390625,-0.109375 0.4375,0 0.59375,0 0.828125,0 1.4375,-0.03125 1.671875,-0.03125 1.96875,-0.03125 2.6875,0 2.96875,0 3.046875,0 3.25,0 3.25,-0.296875 3.25,-0.46875 3.078125,-0.46875 2.984375,-0.46875 2.796875,-0.46875 2.59375,-0.5 2.40625,-0.5625 l 2.3125,-2.3125 1.140625,2.34375 c -0.015625,0 -0.34375,0.0625 -0.578125,0.0625 -0.109375,0 -0.296875,0 -0.296875,0.296875 C 4.984375,-0.15625 5,0 5.203125,0 c 0.34375,0 1.1875,-0.03125 1.53125,-0.03125 0.21875,0 0.453125,0.015625 0.6875,0.015625 C 7.640625,-0.015625 7.890625,0 8.109375,0 8.1875,0 8.390625,0 8.390625,-0.296875 8.390625,-0.46875 8.234375,-0.46875 8,-0.46875 c -0.140625,0 -0.25,0 -0.390625,-0.015625 C 7.453125,-0.5 7.453125,-0.515625 7.375,-0.640625 Z m 0,0"
               id="id-be2fcc28-0b0b-41fe-b889-e45199ddff82" />
          </symbol>
        </g>
      </defs>
      <g
         id="id-d3ed7e6b-db95-49d3-b758-a53ef5af9b0d"
         transform="translate(-149.103,-127.921)">
        <g
           style="fill:#000000;fill-opacity:1"
           id="id-e816c296-0668-43f4-8d81-a337a6a1d055">
          <g
             transform="translate(148.712,134.765)"
             id="g837">
            <path
               style="stroke:none;stroke-width:0"
               d="m -29.9346,-40.162958 1.328125,-1.296875 0.609375,-0.625 c 0.40625,-0.375 0.515625,-0.5 1.5625,-0.515625 0.1875,0 0.203125,-0.25 0.203125,-0.28125 0,-0.0625 -0.04687,-0.1875 -0.203125,-0.1875 -0.34375,0 -0.71875,0.03125 -1.078125,0.03125 -0.296875,0 -1.015625,-0.03125 -1.296875,-0.03125 -0.07813,0 -0.28125,0 -0.28125,0.28125 0,0.1875 0.15625,0.1875 0.25,0.1875 0.296875,0.01563 0.5625,0.09375 0.59375,0.109375 l -1.90625,1.875 -0.90625,-1.921875 c 0.09375,-0.01563 0.40625,-0.0625 0.578125,-0.0625 0.109375,0 0.28125,0 0.28125,-0.28125 0,-0.125 -0.09375,-0.1875 -0.21875,-0.1875 -0.34375,0 -1.171875,0.03125 -1.515625,0.03125 -0.234375,0 -0.453125,0 -0.6875,0 -0.234375,0 -0.46875,-0.03125 -0.703125,-0.03125 -0.07813,0 -0.265625,0 -0.265625,0.28125 0,0.1875 0.125,0.1875 0.40625,0.1875 0.140625,0 0.25,0 0.390625,0.01563 0.140625,0.01563 0.140625,0.03125 0.203125,0.15625 l 1.375,2.875 -2.5,2.46875 c -0.1875,0.171875 -0.390625,0.375 -1.28125,0.390625 -0.171875,0 -0.34375,0 -0.34375,0.296875 0,0.0625 0.04687,0.171875 0.203125,0.171875 0.234375,0 0.84375,-0.03125 1.078125,-0.03125 0.296875,0 1.015625,0.03125 1.296875,0.03125 0.07813,0 0.28125,0 0.28125,-0.296875 0,-0.171875 -0.171875,-0.171875 -0.265625,-0.171875 -0.1875,0 -0.390625,-0.03125 -0.578125,-0.09375 l 2.3125,-2.3125 1.140625,2.34375 c -0.01563,0 -0.34375,0.0625 -0.578125,0.0625 -0.109375,0 -0.296875,0 -0.296875,0.296875 0,0.01563 0.01563,0.171875 0.21875,0.171875 0.34375,0 1.1875,-0.03125 1.53125,-0.03125 0.21875,0 0.453125,0.01563 0.6875,0.01563 0.21875,0 0.46875,0.01563 0.6875,0.01563 0.07813,0 0.28125,0 0.28125,-0.296875 0,-0.171875 -0.15625,-0.171875 -0.390625,-0.171875 -0.140625,0 -0.25,0 -0.390625,-0.01563 -0.15625,-0.01563 -0.15625,-0.03125 -0.234375,-0.15625 z m 0,0"
               id="id-163129c6-f1ae-433c-8102-1634ab6d12e0" />
          </g>
        </g>
      </g>
    </g>
    <rect
       style="fill:#2975af;fill-opacity:1;stroke-width:0.257128"
       id="rect896"
       width="6.2179804"
       height="6.2179804"
       x="31.82143"
       y="79.370689" />
    <rect
       style="fill:#2975af;fill-opacity:0.53909463;stroke-width:0.257128"
       id="rect896-5"
       width="6.2179804"
       height="6.2179804"
       x="38.03941"
       y="79.370689" />
    <rect
       style="fill:#2975af;fill-opacity:1;stroke-width:0.257128"
       id="rect896-1"
       width="6.2179804"
       height="6.2179804"
       x="44.257389"
       y="79.370689" />
    <rect
       style="fill:#2975af;fill-opacity:0.44444448;stroke-width:0.257128"
       id="rect896-5-7"
       width="6.2179804"
       height="6.2179804"
       x="50.475368"
       y="79.370689" />
    <rect
       style="fill:#2975af;fill-opacity:0.56378603;stroke-width:0.257128"
       id="rect896-1-9"
       width="6.2179804"
       height="6.2179804"
       x="56.693348"
       y="79.370689" />
    <rect
       style="fill:#2975af;fill-opacity:0.64609057;stroke-width:0.257128"
       id="rect896-5-7-7"
       width="6.2179804"
       height="6.2179804"
       x="62.911327"
       y="79.370689" />
    <rect
       style="fill:#2975af;fill-opacity:1;stroke-width:0.257128"
       id="rect896-1-2"
       width="6.2179804"
       height="6.2179804"
       x="69.129311"
       y="79.370689" />
    <rect
       style="fill:#2975af;fill-opacity:0.74897116;stroke-width:0.257128"
       id="rect896-5-7-1"
       width="6.2179804"
       height="6.2179804"
       x="75.34729"
       y="79.370689" />
    <rect
       style="fill:#2975af;fill-opacity:0.62139916;stroke-width:0.257128"
       id="rect896-1-5"
       width="6.2179804"
       height="6.2179804"
       x="81.565269"
       y="79.370689" />
    <rect
       style="fill:#2975af;fill-opacity:1;stroke-width:0.257128"
       id="rect896-5-7-3"
       width="6.2179804"
       height="6.2179804"
       x="87.783249"
       y="79.370689" />
    <rect
       style="fill:#ff7600;fill-opacity:1;stroke-width:0.257128"
       id="rect896-7"
       width="6.2179804"
       height="6.2179804"
       x="31.82143"
       y="85.588669" />
    <rect
       style="fill:#ff7643;fill-opacity:1;stroke-width:0.257128"
       id="rect896-5-4"
       width="6.2179804"
       height="6.2179804"
       x="38.03941"
       y="85.588669" />
    <rect
       style="fill:#ff7600;fill-opacity:0.61728394;stroke-width:0.257128"
       id="rect896-1-0"
       width="6.2179804"
       height="6.2179804"
       x="44.257389"
       y="85.588669" />
    <rect
       style="fill:#ff7600;fill-opacity:0.64197522;stroke-width:0.257128"
       id="rect896-5-7-70"
       width="6.2179804"
       height="6.2179804"
       x="50.475368"
       y="85.588669" />
    <rect
       style="fill:#ff7600;fill-opacity:0.20987654;stroke-width:0.257128"
       id="rect896-1-9-0"
       width="6.2179804"
       height="6.2179804"
       x="56.693348"
       y="85.588669" />
    <rect
       style="fill:#ff7600;fill-opacity:0.75720167;stroke-width:0.257128"
       id="rect896-5-7-7-6"
       width="6.2179804"
       height="6.2179804"
       x="62.911327"
       y="85.588669" />
    <rect
       style="fill:#ff7600;fill-opacity:1;stroke-width:0.257128"
       id="rect896-1-2-0"
       width="6.2179804"
       height="6.2179804"
       x="69.129311"
       y="85.588669" />
    <rect
       style="fill:#ff7600;fill-opacity:0.81069964;stroke-width:0.257128"
       id="rect896-5-7-1-1"
       width="6.2179804"
       height="6.2179804"
       x="75.34729"
       y="85.588669" />
    <rect
       style="fill:#ff7600;fill-opacity:0.56790125;stroke-width:0.257128"
       id="rect896-1-5-5"
       width="6.2179804"
       height="6.2179804"
       x="81.565269"
       y="85.588669" />
    <rect
       style="fill:#ff7600;fill-opacity:1;stroke-width:0.257128"
       id="rect896-5-7-3-2"
       width="6.2179804"
       height="6.2179804"
       x="87.783249"
       y="85.588669" />
    <rect
       style="fill:#008000;fill-opacity:1;stroke-width:0.257128"
       id="rect896-0"
       width="6.2179804"
       height="6.2179804"
       x="31.82143"
       y="91.806648" />
    <rect
       style="fill:#008000;fill-opacity:0.921811;stroke-width:0.257128"
       id="rect896-5-71"
       width="6.2179804"
       height="6.2179804"
       x="38.039406"
       y="91.806648" />
    <rect
       style="fill:#008000;fill-opacity:1;stroke-width:0.257128"
       id="rect896-1-24"
       width="6.2179804"
       height="6.2179804"
       x="44.257385"
       y="91.806648" />
    <rect
       style="fill:#008000;fill-opacity:0.374486;stroke-width:0.257128"
       id="rect896-5-7-71"
       width="6.2179804"
       height="6.2179804"
       x="50.475365"
       y="91.806648" />
    <rect
       style="fill:#008000;fill-opacity:0.72428;stroke-width:0.257128"
       id="rect896-1-9-9"
       width="6.2179804"
       height="6.2179804"
       x="56.693344"
       y="91.806648" />
    <rect
       style="fill:#008000;fill-opacity:0.839506;stroke-width:0.257128"
       id="rect896-5-7-7-2"
       width="6.2179804"
       height="6.2179804"
       x="62.911324"
       y="91.806648" />
    <rect
       style="fill:#008000;fill-opacity:0.460905;stroke-width:0.257128"
       id="rect896-1-2-2"
       width="6.2179804"
       height="6.2179804"
       x="69.129311"
       y="91.806648" />
    <rect
       style="fill:#008000;fill-opacity:0.230453;stroke-width:0.257128"
       id="rect896-5-7-1-8"
       width="6.2179804"
       height="6.2179804"
       x="75.34729"
       y="91.806648" />
    <rect
       style="fill:#008000;fill-opacity:1;stroke-width:0.257128"
       id="rect896-1-5-4"
       width="6.2179804"
       height="6.2179804"
       x="81.565269"
       y="91.806648" />
    <rect
       style="fill:#008000;fill-opacity:0.633745;stroke-width:0.257128"
       id="rect896-5-7-3-27"
       width="6.2179804"
       height="6.2179804"
       x="87.783249"
       y="91.806648" />
    <rect
       style="fill:#d9242b;fill-opacity:1;stroke-width:0.257128"
       id="rect896-0-5"
       width="6.2179804"
       height="6.2179804"
       x="31.82143"
       y="98.024628" />
    <rect
       style="fill:#2975af;fill-opacity:1;stroke-width:0.257128"
       id="rect896-3"
       width="6.2179804"
       height="6.2179804"
       x="117.95875"
       y="79.370682" />
    <rect
       style="fill:#ff7600;fill-opacity:1;stroke-width:0.257128"
       id="rect896-7-7"
       width="6.2179804"
       height="6.2179804"
       x="117.95875"
       y="85.588654" />
    <rect
       style="fill:#008000;fill-opacity:1;stroke-width:0.257128"
       id="rect896-0-4"
       width="6.2179804"
       height="6.2179804"
       x="117.95875"
       y="91.806633" />
    <rect
       style="fill:#d9242b;fill-opacity:1;stroke-width:0.257128"
       id="rect896-0-5-0"
       width="6.2179804"
       height="6.2179804"
       x="117.95875"
       y="98.02462" />
    <rect
       style="fill:#d9242b;fill-opacity:0.46913579;stroke-width:0.257128"
       id="rect896-5-71-9"
       width="6.2179804"
       height="6.2179804"
       x="38.03941"
       y="98.024628" />
    <rect
       style="fill:#d9242b;fill-opacity:0.5761317;stroke-width:0.257128"
       id="rect896-1-24-6"
       width="6.2179804"
       height="6.2179804"
       x="44.257389"
       y="98.024628" />
    <rect
       style="fill:#d9242b;fill-opacity:1;stroke-width:0.257128"
       id="rect896-5-7-71-5"
       width="6.2179804"
       height="6.2179804"
       x="50.475368"
       y="98.024628" />
    <rect
       style="fill:#d9242b;fill-opacity:0.12757201;stroke-width:0.257128"
       id="rect896-1-9-9-9"
       width="6.2179804"
       height="6.2179804"
       x="56.693348"
       y="98.024628" />
    <rect
       style="fill:#d9242b;fill-opacity:0.73662549;stroke-width:0.257128"
       id="rect896-5-7-7-2-1"
       width="6.2179804"
       height="6.2179804"
       x="62.911327"
       y="98.024628" />
    <rect
       style="fill:#d9242b;fill-opacity:1;stroke-width:0.257128"
       id="rect896-1-2-2-5"
       width="6.2179804"
       height="6.2179804"
       x="69.129318"
       y="98.024628" />
    <rect
       style="fill:#d9242b;fill-opacity:0.75308645;stroke-width:0.257128"
       id="rect896-5-7-1-8-0"
       width="6.2179804"
       height="6.2179804"
       x="75.34729"
       y="98.024628" />
    <rect
       style="fill:#d9242b;fill-opacity:1;stroke-width:0.257128"
       id="rect896-1-5-4-1"
       width="6.2179804"
       height="6.2179804"
       x="81.565277"
       y="98.024628" />
    <rect
       style="fill:#d9242b;fill-opacity:0.32098761;stroke-width:0.257128"
       id="rect896-5-7-3-27-7"
       width="6.2179804"
       height="6.2179804"
       x="87.783249"
       y="98.024628" />
    <g
       transform="matrix(1.0863892,0,0,1.0863892,117.99758,107.20801)"
       ns1:version="1.5.0"
       ns1:texconverter="pdflatex"
       ns1:pdfconverter="inkscape"
       ns1:text="$\\boldsymbol{y}$"
       ns1:preamble="C:\Users\leblanco.OASIS\AppData\Roaming\inkscape\extensions\textext\default_packages.tex"
       ns1:scale="1.0"
       ns1:alignment="middle center"
       ns1:stroke-to-path="0"
       ns1:jacobian_sqrt="0.352778"
       id="g4619">
      <defs
         id="id-fa4b6778-b9b3-4a99-bba3-da246e7614df">
        <g
           id="id-de3303a1-1d26-4929-aaa1-934dc06b3ee1">
          <symbol
             overflow="visible"
             id="id-44f5d2ff-a9a2-49f4-828a-d0d57ba9c34c">
            <path
               style="stroke:none;stroke-width:0"
               d=""
               id="id-99ba1e5b-84b8-4876-87a7-0fef7e3d567e" />
          </symbol>
          <symbol
             overflow="visible"
             id="id-1a2f50e6-7e6f-4331-ab13-77ee99a1fbec">
            <path
               style="stroke:none;stroke-width:0"
               d="m 5.75,-3.765625 c 0.046875,-0.171875 0.046875,-0.1875 0.046875,-0.21875 0,-0.21875 -0.15625,-0.4375 -0.46875,-0.4375 -0.515625,0 -0.640625,0.46875 -0.703125,0.734375 L 4.359375,-2.65625 C 4.25,-2.171875 4.0625,-1.40625 3.953125,-1 3.890625,-0.78125 3.59375,-0.53125 3.5625,-0.515625 3.453125,-0.453125 3.203125,-0.28125 2.875,-0.28125 c -0.578125,0 -0.59375,-0.5 -0.59375,-0.71875 0,-0.609375 0.3125,-1.390625 0.59375,-2.109375 C 2.96875,-3.375 3,-3.4375 3,-3.609375 3,-4.1875 2.421875,-4.5 1.875,-4.5 c -1.0625,0 -1.5625,1.34375 -1.5625,1.546875 0,0.140625 0.15625,0.140625 0.25,0.140625 0.109375,0 0.1875,0 0.21875,-0.125 0.328125,-1.109375 0.890625,-1.203125 1.03125,-1.203125 0.078125,0 0.171875,0 0.171875,0.203125 0,0.234375 -0.109375,0.484375 -0.171875,0.640625 -0.390625,1 -0.59375,1.578125 -0.59375,2.078125 0,1.140625 1,1.296875 1.578125,1.296875 0.25,0 0.59375,-0.03125 0.96875,-0.296875 C 3.484375,1 2.734375,1.65625 2.046875,1.65625 1.90625,1.65625 1.640625,1.640625 1.4375,1.515625 1.75,1.390625 1.90625,1.109375 1.90625,0.84375 1.90625,0.484375 1.625,0.390625 1.421875,0.390625 c -0.359375,0 -0.71875,0.3125 -0.71875,0.75 0,0.515625 0.53125,0.875 1.34375,0.875 1.140625,0 2.453125,-0.765625 2.765625,-2 z m 0,0"
               id="id-fdbc8935-2dba-4756-9924-c2ceaf181155" />
          </symbol>
        </g>
      </defs>
      <g
         id="id-da6db360-7615-4034-9c4e-66f492899042"
         transform="translate(-149.025,-130.265)">
        <g
           style="fill:#000000;fill-opacity:1"
           id="id-c366c724-c70b-43d1-bec7-47329f4c2fd3">
          <g
             transform="translate(148.712,134.765)"
             id="g4615">
            <path
               style="stroke:none;stroke-width:0"
               d="m 5.75,-3.765625 c 0.046875,-0.171875 0.046875,-0.1875 0.046875,-0.21875 0,-0.21875 -0.15625,-0.4375 -0.46875,-0.4375 -0.515625,0 -0.640625,0.46875 -0.703125,0.734375 L 4.359375,-2.65625 C 4.25,-2.171875 4.0625,-1.40625 3.953125,-1 3.890625,-0.78125 3.59375,-0.53125 3.5625,-0.515625 3.453125,-0.453125 3.203125,-0.28125 2.875,-0.28125 c -0.578125,0 -0.59375,-0.5 -0.59375,-0.71875 0,-0.609375 0.3125,-1.390625 0.59375,-2.109375 C 2.96875,-3.375 3,-3.4375 3,-3.609375 3,-4.1875 2.421875,-4.5 1.875,-4.5 c -1.0625,0 -1.5625,1.34375 -1.5625,1.546875 0,0.140625 0.15625,0.140625 0.25,0.140625 0.109375,0 0.1875,0 0.21875,-0.125 0.328125,-1.109375 0.890625,-1.203125 1.03125,-1.203125 0.078125,0 0.171875,0 0.171875,0.203125 0,0.234375 -0.109375,0.484375 -0.171875,0.640625 -0.390625,1 -0.59375,1.578125 -0.59375,2.078125 0,1.140625 1,1.296875 1.578125,1.296875 0.25,0 0.59375,-0.03125 0.96875,-0.296875 C 3.484375,1 2.734375,1.65625 2.046875,1.65625 1.90625,1.65625 1.640625,1.640625 1.4375,1.515625 1.75,1.390625 1.90625,1.109375 1.90625,0.84375 1.90625,0.484375 1.625,0.390625 1.421875,0.390625 c -0.359375,0 -0.71875,0.3125 -0.71875,0.75 0,0.515625 0.53125,0.875 1.34375,0.875 1.140625,0 2.453125,-0.765625 2.765625,-2 z m 0,0"
               id="id-a217d6a1-1b61-44b4-946a-dd8bb43407a1" />
          </g>
        </g>
      </g>
    </g>
  </g>
</svg>
